<svg xmlns="http://www.w3.org/2000/svg" viewBox="0 0 64 80" x="0px" y="0px"><path fill="#fff" d="M19.414,10.586l-6-6a2,2,0,0,0-2.828,0l-6,6a2,2,0,0,0,2.828,2.828L10,10.828V25a2,2,0,0,0,4,0V10.828l2.586,2.586A2,2,0,0,0,19.414,10.586Z"/><path fill="#fff" d="M26,13a3,3,0,0,1,6,0V28a2,2,0,0,0,4,0,3,3,0,0,1,6,0v2a2,2,0,0,0,4,0,3,3,0,0,1,6,0V44A12.013,12.013,0,0,1,40,56H34a2,2,0,0,0,0,4h6A16.018,16.018,0,0,0,56,44V30a6.988,6.988,0,0,0-11.062-5.69A6.96,6.96,0,0,0,36,21.685V13a7,7,0,0,0-14,0V32.82A19.146,19.146,0,0,0,13.923,31C10.176,31.144,6,34.055,6,38a6.345,6.345,0,0,0,3.617,5.8C18.625,48.815,24,54.118,24,58a2,2,0,0,0,4,0c0-7.089-9-13.564-16.541-17.749A2.675,2.675,0,0,1,10,38c0-1.383,1.625-3,4-3a18.2,18.2,0,0,1,8.941,2.809A2.025,2.025,0,0,0,26,36.111V13Z"/></svg>